<svg xmlns="http://www.w3.org/2000/svg" width="18.03" height="18.145" viewBox="0 0 18.03 18.145">
  <path id="arrow" d="M554.982,221.072A9.073,9.073,0,1,1,564,212,9.054,9.054,0,0,1,554.982,221.072Zm-1.233-14.126a.9.9,0,0,0-.625.248l-.312.3a.819.819,0,0,0,0,1.2l3.435,3.318-3.435,3.285a.822.822,0,0,0,0,1.2l.312.3a.914.914,0,0,0,1.251,0l4.044-3.867a.045.045,0,0,1,.011-.008l.009-.006.312-.3a.828.828,0,0,0,0-1.2l-.312-.3-.01-.007-.01-.007-4.044-3.9A.9.9,0,0,0,553.749,206.946Z" transform="translate(-545.968 -202.927)" fill="#56ccc8"/>
</svg>
