<svg xmlns="http://www.w3.org/2000/svg" width="24" height="16" viewBox="0 0 24 16">
  <path id="Email_Icon" data-name="Email Icon" d="M142.5,583.021a1.5,1.5,0,0,1-1.5-1.5v-10.79l11.09,7.044a1.39,1.39,0,0,0,.9.283,1.705,1.705,0,0,0,.706-.176,2.206,2.206,0,0,0,.264-.144l-.059.045L165,570.7v10.824a1.5,1.5,0,0,1-1.5,1.5Zm10.487-4.964h0Zm.972-.32C154.018,577.694,154.012,577.7,153.958,577.737ZM141,568.521a1.5,1.5,0,0,1,1.5-1.5h21a1.5,1.5,0,0,1,1.5,1.5l-12.007,7.528Z" transform="translate(-140.999 -567.021)" fill="#c5cdd1"/>
</svg>
