<svg xmlns="http://www.w3.org/2000/svg" width="24" height="23.999" viewBox="0 0 24 23.999">
  <path id="Follow_user" data-name="Follow user" d="M1020.041,478a12,12,0,1,1,8.486-3.514A11.921,11.921,0,0,1,1020.041,478ZM1014.6,465.37a1.219,1.219,0,0,0-.887.383l-.3.311a1.318,1.318,0,0,0,0,1.8l2.832,3.006.009.019.339.354a1.227,1.227,0,0,0,1.781,0l.309-.329,6.9-7.048a1.32,1.32,0,0,0,0-1.8l-.3-.313a1.22,1.22,0,0,0-1.77,0l-6.026,6.138-2-2.135A1.219,1.219,0,0,0,1014.6,465.37Z" transform="translate(-1008.041 -454)" fill="#fff"/>
</svg>
