<svg xmlns="http://www.w3.org/2000/svg" width="16.028" height="16.032" viewBox="0 0 16.028 16.032">
  <path id="G_Icon_copy" data-name="G+ Icon copy" d="M948.982,142.959c0-2.7,1.915-3.574,4.675-3.574.3,0,.576-.007.861-.007a1.649,1.649,0,0,1-.683-1.233,1.993,1.993,0,0,1,.252-.923c-.149.01-.3.02-.46.02a3.4,3.4,0,0,1-3.587-3.577c0-1.948,2.009-3.694,4.418-3.694h4.749l-1.061,1.085H956.9a2.983,2.983,0,0,1,1.347,2.676,3.213,3.213,0,0,1-1.4,2.529c-.8.625-.954.886-.954,1.417,0,.453.958,1.127,1.4,1.456,1.534,1.147,1.822,1.868,1.844,3.3.029,1.905-1.934,3.568-5.08,3.568C951.295,146,948.982,144.749,948.982,142.959Zm1.93-.421c0,1.262,1.3,2.29,3.087,2.29,2.521,0,3.4-.963,3.4-2.227a1.247,1.247,0,0,0-.058-.446c-.608-1.514-2.567-1.514-3.22-1.514C952.364,140.642,950.912,141.3,950.912,142.538Zm1.054-8.773a2.892,2.892,0,0,0,2.579,2.682c1.214.035,1.913-.94,1.7-2.523s-1-2.772-2.215-2.809h-.056A2.172,2.172,0,0,0,951.966,133.764Zm10,1.234v-1.984H960v-1h1.969v-2.042h1.04v2.042h2v1h-2V135Z" transform="translate(-948.982 -129.969)" fill="#b2b9bd"/>
</svg>
