<svg xmlns="http://www.w3.org/2000/svg" width="32" height="31.92" viewBox="0 0 32 31.92">
  <g id="G_" data-name="G+" transform="translate(-625.01 -322.07)">
    <ellipse id="Base" cx="16" cy="15.96" rx="16" ry="15.96" transform="translate(625.01 322.07)" fill="#c5cdd1"/>
    <path id="G_Icon" data-name="G+ Icon" d="M634.982,343.959c0-2.7,1.915-3.574,4.675-3.574.3,0,.576-.008.861-.008a1.648,1.648,0,0,1-.682-1.233,2.007,2.007,0,0,1,.251-.923c-.149.01-.3.02-.46.02a3.4,3.4,0,0,1-3.586-3.578c0-1.948,2.009-3.694,4.418-3.694h4.749l-1.061,1.086H642.9a2.984,2.984,0,0,1,1.347,2.676,3.214,3.214,0,0,1-1.4,2.528c-.8.625-.954.886-.954,1.417,0,.453.958,1.128,1.4,1.457,1.534,1.147,1.823,1.867,1.844,3.3.029,1.9-1.934,3.567-5.08,3.567C637.294,347,634.982,345.749,634.982,343.959Zm1.93-.422c0,1.262,1.3,2.29,3.088,2.29,2.52,0,3.4-.963,3.4-2.227a1.249,1.249,0,0,0-.058-.445c-.608-1.514-2.567-1.514-3.22-1.514C638.364,341.642,636.912,342.3,636.912,343.537Zm1.054-8.773a2.891,2.891,0,0,0,2.579,2.682c1.215.035,1.913-.939,1.7-2.523s-1-2.772-2.215-2.809h-.056A2.172,2.172,0,0,0,637.966,334.764Zm10,1.235v-1.984H646v-1h1.969v-2.042h1.04v2.042h2v1h-2V336Z" fill="#fff"/>
  </g>
</svg>
