<svg xmlns="http://www.w3.org/2000/svg" width="32.062" height="28.884" viewBox="0 0 32.062 28.884">
  <path id="Heart" d="M494.969,1366.558a5.589,5.589,0,0,1,4.2,1.836,6.33,6.33,0,0,1-.029,9c-.111.114-8.465,8.811-11.145,11.6-2.263-2.419-10.207-10.907-11.162-11.863a6.329,6.329,0,0,1,0-8.97,5.411,5.411,0,0,1,4.135-1.592c.562,0,2.166.293,4.926,3.012a3,3,0,0,0,2.105.863h.024a3,3,0,0,0,2.115-.9c2.169-2.205,3.958-2.988,4.83-2.988m0-3c-2.363,0-5,1.884-6.969,3.885-2.031-2-4.586-3.875-7.032-3.875a8.433,8.433,0,0,0-6.255,2.469,9.329,9.329,0,0,0,0,13.217c1.045,1.045,11.589,12.322,11.589,12.322a2.072,2.072,0,0,0,3.371,0s11.5-11.969,11.613-12.089a9.329,9.329,0,0,0,0-13.217,8.54,8.54,0,0,0-6.317-2.711Z" transform="translate(-471.969 -1363.558)" fill="#fff"/>
</svg>
