<svg xmlns="http://www.w3.org/2000/svg" width="22.541" height="22.54" viewBox="0 0 22.541 22.54">
  <path id="Info_icon" data-name="Info icon" d="M151.913,503.877a11.27,11.27,0,1,0,11.416,11.073A11.241,11.241,0,0,0,151.913,503.877Zm1.274,3.724a1.3,1.3,0,0,1,1.47,1.421,1.913,1.913,0,0,1-2.058,1.862c-1.078,0-1.617-.588-1.568-1.47A1.965,1.965,0,0,1,153.186,507.6Zm-2.94,14.552c-.784,0-1.372-.441-.833-2.548l.882-3.724c.2-.588.2-.833,0-.833a6.669,6.669,0,0,0-1.813.833l-.392-.637c1.911-1.617,4.067-2.548,5-2.548.784,0,.931.931.539,2.352l-1.029,3.919c-.2.686-.1.931.1.931a4.546,4.546,0,0,0,1.764-.882l.441.588A8.083,8.083,0,0,1,150.247,522.153Z" transform="translate(-140.789 -503.876)" fill="#c5cdd1"/>
</svg>
