<svg xmlns="http://www.w3.org/2000/svg" width="32" height="31.92" viewBox="0 0 32 31.92">
  <g id="Linked_in" data-name="Linked in" transform="translate(-890.01 -615.07)">
    <ellipse id="Base" cx="16" cy="15.96" rx="16" ry="15.96" transform="translate(890.01 615.07)" fill="#238cc8"/>
    <path id="LinkedIn_icon" data-name="LinkedIn icon" d="M911.03,638v-6.266a2.115,2.115,0,0,0-2.072-2.336,2.143,2.143,0,0,0-1.93,1.256,2.414,2.414,0,0,0-.11.838V638H903.93V627.174H906.6l.221,1.172a4.081,4.081,0,0,1,3.461-1.551c2.2,0,3.73,1.286,3.73,4.46V638Zm-11.96,0V627.174h2.991V638Zm-.368-14a1.885,1.885,0,0,1,3.751,0,1.682,1.682,0,0,1-1.884,1.679A1.706,1.706,0,0,1,898.7,624Z" fill="#fff"/>
  </g>
</svg>
