<svg xmlns="http://www.w3.org/2000/svg" width="16.092" height="16.06" viewBox="0 0 16.092 16.06">
  <path id="Login_Icon" data-name="Login Icon" d="M1023.993,145.03h-14.029a1.031,1.031,0,0,1-1.031-1.031v-.594c0-.87,1.031-1.031,1.031-1.031l5.359-2.655a6.949,6.949,0,0,1-2.266-4.563v-2.577a4.1,4.1,0,0,1,4.125-3.609,3.818,3.818,0,0,1,3.843,3.609v2.577a6.7,6.7,0,0,1-2.245,4.573l5.214,2.645s1.031.177,1.031,1.031V144A1.031,1.031,0,0,1,1023.993,145.03Z" transform="translate(-1008.932 -128.969)" fill="#b2b9bd"/>
</svg>
