<svg xmlns="http://www.w3.org/2000/svg" width="22.569" height="22.586" viewBox="0 0 22.569 22.586">
  <path id="Note_icon" data-name="Note icon" d="M141.332,342a1.435,1.435,0,0,1-1.321-1.582V323.4a1.28,1.28,0,0,1,1.321-1.4h11.788l-7.873,7.871a2.535,2.535,0,0,0-.641,1.12c-.127.47-.632,2.159-1.372,4.592a2.524,2.524,0,0,0,.63,2.541,2.248,2.248,0,0,0,1.7.684,2.621,2.621,0,0,0,.789-.125c.131-.043,3.732-1.1,4.348-1.287a2.559,2.559,0,0,0,1.065-.628c.264-.26,4.195-4.094,7.221-7.1l-.019,10.793A1.533,1.533,0,0,1,157.476,342Zm4.247-5.569a.543.543,0,0,1-.136-.544c.011-.038,1.162-3.807,1.391-4.656a.541.541,0,0,1,.139-.243l9.5-9.522,4.1,3.9c-2.641,2.633-9.336,9.267-9.671,9.6a.54.54,0,0,1-.224.131c-.64.192-4.526,1.449-4.565,1.462a.575.575,0,0,1-.164.025A.535.535,0,0,1,145.579,336.43Zm11.605-15.673.446-.446a3.063,3.063,0,0,1,2.049-.9,2.7,2.7,0,0,1,1.893.834,2.86,2.86,0,0,1,1.006,2,2.935,2.935,0,0,1-.963,2.082c-.05.051-.174.176-.329.331Z" transform="translate(-140.011 -319.413)" fill="#fff"/>
</svg>
