<svg xmlns="http://www.w3.org/2000/svg" width="22.918" height="23.1" viewBox="0 0 22.918 23.1">
  <path id="Phone_icon" data-name="Phone icon" d="M146.755,640.387a2.177,2.177,0,0,0-1.244.395c-.04.028-3.956,3-3.908,4.552.1,3.069,2.376,6.877,6.775,11.315s8.174,6.738,11.232,6.837h.037c1.516,0,4.431-3.906,4.458-3.944a1.9,1.9,0,0,0-.244-2.644c-.335-.236-3.971-2.675-4.412-2.947a1.607,1.607,0,0,0-.852-.225,2.592,2.592,0,0,0-1.2.324c-.308.163-2.117,1.946-2.673,2.265a34.257,34.257,0,0,1-5.671-5.721c.317-.559,1.741-2.731,1.9-3.04a2.112,2.112,0,0,0,.091-2.088c-.255-.408-2.655-4.079-2.92-4.45a1.658,1.658,0,0,0-1.369-.631Z" transform="translate(-141.603 -640.387)" fill="#fff"/>
</svg>
