<svg xmlns="http://www.w3.org/2000/svg" width="18.997" height="13.984" viewBox="0 0 18.997 13.984">
  <path id="Photo_icon" data-name="Photo icon" d="M461.81,1698.985h-2.8l-1.069-2.191a1.787,1.787,0,0,0-1.477-.776H450.53a1.789,1.789,0,0,0-1.477.775l-1.069,2.192h-2.8a1.179,1.179,0,0,0-1.188,1.17v8.677a1.179,1.179,0,0,0,1.187,1.171h16.622a1.179,1.179,0,0,0,1.187-1.171v-8.677A1.179,1.179,0,0,0,461.81,1698.985Zm-8.312,8.061a3.433,3.433,0,0,1-3.531-3.418,3.532,3.532,0,1,1,7.061,0A3.433,3.433,0,0,1,453.5,1707.046Z" transform="translate(-444 -1696.019)" fill="#fff"/>
</svg>
