<svg xmlns="http://www.w3.org/2000/svg" width="32" height="31.92" viewBox="0 0 32 31.92">
  <g id="Pinterest" transform="translate(-625.01 -432.07)">
    <ellipse id="Base" cx="16" cy="15.96" rx="16" ry="15.96" transform="translate(625.01 432.07)" fill="#c5cdd1"/>
    <path id="Pinterest_Icon" data-name="Pinterest Icon" d="M642.792,452.7a2.773,2.773,0,0,1-2.352-1.177s-.56,2.177-.677,2.6a10.033,10.033,0,0,1-1.738,3.092.129.129,0,0,1-.229-.054,10.386,10.386,0,0,1,.029-3.591c.185-.767,1.239-5.149,1.239-5.149a3.565,3.565,0,0,1-.308-1.494c0-1.4.828-2.446,1.858-2.446a1.273,1.273,0,0,1,1.3,1.418,19.964,19.964,0,0,1-.849,3.354,1.47,1.47,0,0,0,1.519,1.82c1.824,0,3.053-2.3,3.053-5.025,0-2.071-1.421-3.621-4.006-3.621a4.519,4.519,0,0,0-4.739,4.526,2.687,2.687,0,0,0,.635,1.852.455.455,0,0,1,.138.528c-.047.173-.151.592-.2.757a.332.332,0,0,1-.482.237,3.625,3.625,0,0,1-1.971-3.611c0-2.683,2.306-5.9,6.88-5.9,3.675,0,6.095,2.611,6.095,5.414C647.986,449.926,645.886,452.7,642.792,452.7Z" fill="#fff"/>
  </g>
</svg>
