<svg xmlns="http://www.w3.org/2000/svg" width="18.04" height="24.082" viewBox="0 0 18.04 24.082">
  <path id="Pointer_icon" data-name="Pointer icon" d="M153.091,730.087h-.058a1.831,1.831,0,0,1-1.186-.6C149.1,726.329,144,720.453,144,714.979a9.031,9.031,0,0,1,9.067-8.974,8.952,8.952,0,0,1,8.973,8.974,15.21,15.21,0,0,1-2.652,7.805,51.5,51.5,0,0,1-5.105,6.7A1.842,1.842,0,0,1,153.091,730.087Zm-.111-19.1a4,4,0,1,0,4.04,4A4.025,4.025,0,0,0,152.98,710.99Z" transform="translate(-143.995 -706.005)" fill="#fff"/>
</svg>
