<svg xmlns="http://www.w3.org/2000/svg" width="32" height="31.92" viewBox="0 0 32 31.92">
  <g id="Rss" transform="translate(-625.01 -377.07)">
    <ellipse id="Base_" data-name="Base " cx="16" cy="15.96" rx="16" ry="15.96" transform="translate(625.01 377.07)" fill="#c5cdd1"/>
    <path id="Rss_Icon" data-name="Rss Icon" d="M646.94,400.1A12.972,12.972,0,0,0,634,387.128v-3.077A16.057,16.057,0,0,1,650.025,400.1Zm-5.449,0a7.5,7.5,0,0,0-7.5-7.516v-3.076a10.6,10.6,0,0,1,10.58,10.592Zm-7.5-2.148a2.14,2.14,0,1,1,2.14,2.129A2.136,2.136,0,0,1,633.99,397.95Z" fill="#fff"/>
  </g>
</svg>
