<svg xmlns="http://www.w3.org/2000/svg" width="31.939" height="28.811" viewBox="0 0 31.939 28.811">
  <path id="Share_icon_copy" data-name="Share icon copy" d="M473.924,1575.006a1.932,1.932,0,0,1-1.93-1.931v-19.133a1.932,1.932,0,0,1,1.93-1.931h9.23a10.99,10.99,0,0,0-2.844,2.974h-4.667a.643.643,0,0,0-.644.644v15.728a.644.644,0,0,0,.644.643h22.708a.644.644,0,0,0,.643-.643v-9.114L502,1559.83v13.246a1.932,1.932,0,0,1-1.931,1.931Zm5.752-7.454h0Zm-.092,0,.052,0,.039,0Zm0,0Zm-.537-.621c-.009-.269-.42-6.631,3.782-10.981a12.463,12.463,0,0,1,9.173-4.089v-5.023a.643.643,0,0,1,1.039-.508l10.644,8.329a.644.644,0,0,1,0,1.015l-10.644,8.33A.644.644,0,0,1,492,1563.5v-5.514c-11.621.287-11.784,8.624-11.811,8.973a.615.615,0,0,1-.554.593A.644.644,0,0,1,479.047,1566.932Z" transform="translate(-471.993 -1546.196)" fill="#fff"/>
</svg>
