<svg xmlns="http://www.w3.org/2000/svg" width="31.939" height="28.811" viewBox="0 0 31.939 28.811">
  <path id="Share_icon" data-name="Share icon" d="M212.924,1788.007a1.932,1.932,0,0,1-1.93-1.93v-19.133a1.933,1.933,0,0,1,1.93-1.931h9.23a11.016,11.016,0,0,0-2.844,2.974h-4.667a.644.644,0,0,0-.644.644v15.728a.644.644,0,0,0,.644.644h22.708a.644.644,0,0,0,.643-.644v-9.114L241,1772.83v13.246a1.932,1.932,0,0,1-1.93,1.93Zm5.752-7.455h0Zm-.092,0,.052,0,.04,0Zm0,0Zm-.537-.62c-.009-.269-.42-6.631,3.782-10.981a12.464,12.464,0,0,1,9.173-4.089v-5.023a.644.644,0,0,1,1.04-.509l10.644,8.33a.644.644,0,0,1,0,1.015l-10.644,8.33a.644.644,0,0,1-1.04-.508v-5.514c-11.621.287-11.784,8.624-11.811,8.973a.614.614,0,0,1-.555.592A.642.642,0,0,1,218.047,1779.932Z" transform="translate(-210.993 -1759.196)" fill="#fff"/>
</svg>
