<svg xmlns="http://www.w3.org/2000/svg" width="22.051" height="22.051" viewBox="0 0 22.051 22.051">
  <path id="Shop_icon" data-name="Shop icon" d="M140.625,280.452a2.457,2.457,0,0,0,2.45,2.45,2.426,2.426,0,0,0,2.45-2.45,2.457,2.457,0,0,0-2.45-2.45A2.49,2.49,0,0,0,140.625,280.452Zm12.251,0a2.457,2.457,0,0,0,2.45,2.45,2.426,2.426,0,0,0,2.45-2.45,2.457,2.457,0,0,0-2.45-2.45A2.49,2.49,0,0,0,152.876,280.452Zm-7.889-5.782L158.56,270.8a.649.649,0,0,0,.441-.637v-6.713H141.752v-2.107a.527.527,0,0,0-.49-.49H137.44a.527.527,0,0,0-.49.49v1.96h2.4l2.4,11.124.245,1.127v1.862a.491.491,0,0,0,.49.49h16.024a.491.491,0,0,0,.49-.49v-1.862h-13.77C143.81,275.551,143.81,275.012,144.986,274.669Z" transform="translate(-136.95 -260.85)" fill="#c5cdd1"/>
</svg>
