<svg xmlns="http://www.w3.org/2000/svg" width="32" height="31.92" viewBox="0 0 32 31.92">
  <g id="Twitter_Selected" transform="translate(-626.01 -266.07)">
    <ellipse id="Base" cx="16" cy="15.96" rx="16" ry="15.96" transform="translate(626.01 266.07)" fill="#4fc6f8"/>
    <path id="Twitter_Icon" data-name="Twitter Icon" d="M651.027,277.547a6.573,6.573,0,0,1-1.888.517,3.3,3.3,0,0,0,1.445-1.815,6.622,6.622,0,0,1-2.087.8,3.288,3.288,0,0,0-5.6,2.993,9.346,9.346,0,0,1-6.776-3.428,3.279,3.279,0,0,0,1.018,4.38,3.275,3.275,0,0,1-1.489-.411c0,.014,0,.027,0,.042a3.284,3.284,0,0,0,2.637,3.217,3.291,3.291,0,0,1-.866.115,3.243,3.243,0,0,1-.619-.059,3.287,3.287,0,0,0,3.071,2.278,6.6,6.6,0,0,1-4.082,1.406,6.51,6.51,0,0,1-.784-.047,9.351,9.351,0,0,0,14.391-7.86c0-.142,0-.284-.009-.424A6.679,6.679,0,0,0,651.027,277.547Z" fill="#fff"/>
  </g>
</svg>
