<svg xmlns="http://www.w3.org/2000/svg" width="16.023" height="12.997" viewBox="0 0 16.023 12.997">
  <path id="Twitter_Icon" data-name="Twitter Icon" d="M932.027,132.548a6.584,6.584,0,0,1-1.888.517,3.3,3.3,0,0,0,1.445-1.815,6.622,6.622,0,0,1-2.087.8,3.288,3.288,0,0,0-5.6,2.993,9.345,9.345,0,0,1-6.776-3.428,3.279,3.279,0,0,0,1.017,4.379,3.271,3.271,0,0,1-1.489-.411c0,.014,0,.027,0,.042a3.284,3.284,0,0,0,2.637,3.217,3.32,3.32,0,0,1-1.484.056,3.287,3.287,0,0,0,3.071,2.278,6.6,6.6,0,0,1-4.082,1.406,6.505,6.505,0,0,1-.784-.047,9.351,9.351,0,0,0,14.391-7.86c0-.142,0-.284-.009-.425A6.676,6.676,0,0,0,932.027,132.548Z" transform="translate(-916.004 -131.009)" fill="#b2b9bd"/>
</svg>
