<svg xmlns="http://www.w3.org/2000/svg" width="26" height="16.061" viewBox="0 0 26 16.061">
  <path id="Users_icon" data-name="Users icon" d="M146.039,400.03A1.031,1.031,0,0,1,145.008,399v-.593c0-.87,1.067-1.364,1.067-1.364l4.122-2.322a6.954,6.954,0,0,1-2.266-4.563v-2.578a4.1,4.1,0,0,1,4.126-3.61,3.818,3.818,0,0,1,3.843,3.61v2.578a6.7,6.7,0,0,1-2.246,4.572l4.463,2.417s.982.407.982,1.261V399a1.031,1.031,0,0,1-1.031,1.031ZM164.013,400H160v-1.594a2.563,2.563,0,0,0-1.363-2.153A5.075,5.075,0,0,1,157,392.761v-1.984A2.876,2.876,0,0,1,159.89,388,3.088,3.088,0,0,1,163,390.777v1.984a5.021,5.021,0,0,1-1.543,3.511l2.524,1.63s1.019.536,1.019,1.206v.457c0,.431-.531.435-.965.435Zm-24.026,0c-.438,0-.987,0-.987-.435v-.457c0-.67,1.019-1.237,1.019-1.237l2.525-1.6A5.017,5.017,0,0,1,141,392.761v-1.984A3.088,3.088,0,0,1,144.11,388a2.875,2.875,0,0,1,2.89,2.776v1.984a5.074,5.074,0,0,1-1.636,3.492A2.563,2.563,0,0,0,144,398.406V400Z" transform="translate(-139 -383.969)" fill="#c5cdd1"/>
</svg>
