<svg xmlns="http://www.w3.org/2000/svg" width="22.308" height="13.944" viewBox="0 0 22.308 13.944">
  <path id="Views_icon" data-name="Views icon" d="M634.475,2838.372a.688.688,0,0,1,0-.765c2.781-4.188,6.8-6.59,11.039-6.59s8.258,2.4,11.038,6.59a.688.688,0,0,1,0,.765c-2.779,4.187-6.8,6.589-11.038,6.589S637.256,2842.558,634.475,2838.372Zm6.453-.368a5.037,5.037,0,1,0,5.037-5.006A5.026,5.026,0,0,0,640.928,2838Zm2.072.006a3.01,3.01,0,1,1,3.01,3.01A3.01,3.01,0,0,1,643,2838.01Z" transform="translate(-634.359 -2831.017)" fill="#56ccc8"/>
</svg>
